<svg width="120" height="120" viewBox="0 0 120 120" fill="none" xmlns="http://www.w3.org/2000/svg">
  <ellipse cx="42" cy="58" rx="8" ry="14" fill="#6F8A4F"/>
  <ellipse cx="78" cy="54" rx="8" ry="18" fill="#6F8A4F"/>
  <rect x="50" y="22" width="20" height="50" rx="10" fill="#3F5A2E"/>
  <line x1="50" y1="28" x2="46" y2="26" stroke="#FBF7EC" stroke-width="1"/>
  <line x1="70" y1="28" x2="74" y2="26" stroke="#FBF7EC" stroke-width="1"/>
  <line x1="50" y1="36" x2="46" y2="34" stroke="#FBF7EC" stroke-width="1"/>
  <line x1="70" y1="36" x2="74" y2="34" stroke="#FBF7EC" stroke-width="1"/>
  <line x1="50" y1="44" x2="46" y2="42" stroke="#FBF7EC" stroke-width="1"/>
  <line x1="70" y1="44" x2="74" y2="42" stroke="#FBF7EC" stroke-width="1"/>
  <line x1="50" y1="52" x2="46" y2="50" stroke="#FBF7EC" stroke-width="1"/>
  <line x1="70" y1="52" x2="74" y2="50" stroke="#FBF7EC" stroke-width="1"/>
  <line x1="50" y1="60" x2="46" y2="58" stroke="#FBF7EC" stroke-width="1"/>
  <line x1="70" y1="60" x2="74" y2="58" stroke="#FBF7EC" stroke-width="1"/>
  <circle cx="60" cy="22" r="5" fill="#C77B5C"/>
  <circle cx="60" cy="22" r="2" fill="#A8C081"/>
  <path d="M 36 70 L 84 70 L 80 100 Q 78 106 72 106 L 48 106 Q 42 106 40 100 Z" fill="#C77B5C"/>
  <ellipse cx="60" cy="70" rx="24" ry="3" fill="#8A5E48" opacity="0.6"/>
</svg>
