<svg width="120" height="120" viewBox="0 0 120 120" fill="none" xmlns="http://www.w3.org/2000/svg">
  <g transform="translate(60 60) rotate(-25)">
    <path d="M 0 0 C -22 -10 -34 -32 -28 -50 C -10 -52 14 -38 18 -16 C 18 -8 12 0 0 0 Z" fill="#3F5A2E"/>
    <path d="M -8 -12 L -22 -38 M 0 -8 L -2 -42 M 8 -14 L 12 -36" stroke="#F1ECE0" stroke-width="2" stroke-linecap="round" opacity="0.4"/>
    <circle cx="-12" cy="-22" r="3" fill="#F1ECE0" opacity="0.5"/>
    <circle cx="2" cy="-30" r="2.5" fill="#F1ECE0" opacity="0.5"/>
  </g>
  <g transform="translate(60 60) rotate(15)">
    <path d="M 0 0 C -18 -6 -32 -30 -22 -52 C -2 -58 22 -42 26 -18 C 26 -8 18 2 0 0 Z" fill="#6F8A4F"/>
    <path d="M -6 -10 L -18 -42 M 2 -6 L 4 -48 M 10 -10 L 18 -38" stroke="#3F5A2E" stroke-width="1.8" stroke-linecap="round" opacity="0.5"/>
    <ellipse cx="-10" cy="-26" rx="3" ry="2" fill="#3F5A2E" opacity="0.45"/>
    <ellipse cx="4" cy="-36" rx="2.5" ry="1.8" fill="#3F5A2E" opacity="0.45"/>
    <ellipse cx="14" cy="-22" rx="2.5" ry="1.8" fill="#3F5A2E" opacity="0.45"/>
  </g>
  <path d="M 36 64 L 84 64 L 80 96 Q 78 102 72 102 L 48 102 Q 42 102 40 96 Z" fill="#B9876B"/>
  <ellipse cx="60" cy="64" rx="24" ry="3.5" fill="#8A5E48"/>
</svg>
